<?xml version="1.0" standalone="no"?>
<!DOCTYPE svg PUBLIC "-//W3C//DTD SVG 20010904//EN"
 "http://www.w3.org/TR/2001/REC-SVG-20010904/DTD/svg10.dtd">
<svg version="1.0" xmlns="http://www.w3.org/2000/svg"
 width="100.000000pt" height="100.000000pt" viewBox="0 0 100.000000 100.000000"
 preserveAspectRatio="xMidYMid meet">

<g transform="translate(0.000000,100.000000) scale(0.100000,-0.100000)"
fill="#000000" stroke="none">
<path d="M574 948 c-2 -3 -14 -4 -26 0 -14 3 -19 2 -14 -6 5 -8 -1 -12 -15
-12 -29 0 -89 -22 -89 -32 0 -4 -13 -8 -29 -8 -16 0 -31 -5 -33 -11 -2 -6 -19
-13 -38 -15 -18 -2 -43 -12 -54 -23 -12 -10 -26 -17 -31 -15 -10 4 -47 -86
-77 -191 -30 -104 -48 -95 196 -95 118 0 217 3 220 8 5 9 106 391 106 403 0
11 -110 8 -116 -3z"/>
<path d="M707 773 c-12 -19 -65 -218 -61 -225 3 -4 57 -8 120 -8 131 0 116
-12 153 120 35 126 40 120 -93 120 -63 0 -117 -3 -119 -7z"/>
<path d="M116 452 c-9 -15 -56 -191 -56 -211 0 -20 6 -21 114 -21 81 0 117 4
122 12 13 21 63 212 58 220 -7 10 -231 10 -238 0z"/>
<path d="M415 448 c-27 -73 -113 -404 -107 -410 5 -5 104 -7 222 -6 l213 3 58
205 c32 112 55 208 53 212 -3 4 -102 8 -220 8 -163 0 -216 -3 -219 -12z"/>
</g>
</svg>
